 <svg version="1.0" xmlns="http://www.w3.org/2000/svg"  width="32.000000pt" height="32.000000pt" viewBox="0 0 32.000000 32.000000"  preserveAspectRatio="xMidYMid meet">  <g transform="translate(0.000000,32.000000) scale(0.100000,-0.100000)" fill="#000000" stroke="none"> <path d="M0 246 c0 -10 6 -13 15 -10 18 7 19 -10 3 -87 -9 -46 -9 -61 1 -73 20 -24 51 -19 84 12 l29 27 -7 -27 c-6 -23 -4 -28 11 -28 9 0 26 7 36 17 17 15 18 15 18 0 0 -10 7 -17 15 -17 8 0 15 7 15 16 0 8 -4 13 -9 9 -31 -18 -11 61 27 109 24 31 28 51 11 62 -17 10 -27 -7 -45 -76 -18 -71 -29 -90 -52 -90 -15 0 -14 36 5 138 5 29 3 33 -13 30 -15 -3 -20 -15 -25 -66 -7 -68 -31 -107 -61 -99 -11 3 -15 1 -12 -5 4 -6 1 -9 -7 -6 -8 3 -16 13 -17 23 -3 10 0 15 7 11 13 -8 25 34 25 94 1 42 -1 45 -26 48 -20 2 -28 -1 -28 -12z"/> <path d="M245 170 c-10 -11 -15 -23 -12 -27 4 -3 7 -1 7 5 0 7 9 12 20 12 26 0 25 -14 -2 -32 -20 -13 -21 -18 -10 -42 12 -27 40 -34 60 -14 18 18 15 24 -15 23 -35 0 -40 19 -8 33 19 9 25 18 23 35 -4 29 -39 34 -63 7z"/> </g> </svg>